<svg width="141" height="60" viewBox="0 0 141 60" fill="none" xmlns="http://www.w3.org/2000/svg">
<path d="M60.3979 30.9255C60.3979 27.7912 62.8459 25.3104 65.9511 25.3104C67.6981 25.3104 69.2114 26.1063 70.1771 27.2764C70.3012 27.417 70.3651 27.5886 70.3651 27.7437C70.3651 28.1015 70.0694 28.3991 69.6951 28.3991C69.5235 28.3991 69.3373 28.2896 69.1657 28.1344C68.4173 27.1979 67.2946 26.5736 65.9529 26.5736C63.6126 26.5736 61.7725 28.4922 61.7725 30.9255C61.7725 33.3425 63.6126 35.2611 65.9529 35.2611C67.2946 35.2611 68.4173 34.6368 69.1657 33.7167C69.3373 33.5451 69.5235 33.452 69.6951 33.452C70.0694 33.452 70.3651 33.7331 70.3651 34.1074C70.3651 34.2479 70.303 34.436 70.1771 34.5601C69.2096 35.7448 67.6962 36.5407 65.9511 36.5407C62.8459 36.5389 60.3979 34.0599 60.3979 30.9255Z" fill="#2FA7D5"/>
<path d="M72.2344 26.0113C72.2344 25.637 72.5301 25.3413 72.8897 25.3413C73.2639 25.3413 73.5597 25.637 73.5597 26.0113V35.1515H77.3183C77.6615 35.1515 77.9262 35.4162 77.9262 35.7593C77.9262 36.1025 77.6615 36.3837 77.3183 36.3837H72.8879C72.5301 36.3837 72.2325 36.0879 72.2325 35.7137V26.0113H72.2344Z" fill="#2FA7D5"/>
<path d="M79.2661 26.0113C79.2661 25.637 79.5618 25.3413 79.9215 25.3413C80.2957 25.3413 80.5914 25.637 80.5914 26.0113V35.8378C80.5914 36.1956 80.2957 36.5078 79.9215 36.5078C79.5637 36.5078 79.2661 36.1956 79.2661 35.8378V26.0113Z" fill="#2FA7D5"/>
<path d="M82.3385 30.9255C82.3385 27.7911 84.7865 25.3103 87.8916 25.3103C89.6386 25.3103 91.1519 26.1062 92.1176 27.2763C92.2417 27.4169 92.3056 27.5885 92.3056 27.7437C92.3056 28.1015 92.0099 28.399 91.6357 28.399C91.4641 28.399 91.2779 28.2895 91.1063 28.1343C90.3579 27.1979 89.2352 26.5735 87.8935 26.5735C85.5532 26.5735 83.7131 28.4921 83.7131 30.9255C83.7131 33.3424 85.5532 35.261 87.8935 35.261C89.2352 35.261 90.3579 34.6367 91.1063 33.7167C91.2779 33.5451 91.4641 33.452 91.6357 33.452C92.0099 33.452 92.3056 33.7331 92.3056 34.1073C92.3056 34.2479 92.2436 34.4359 92.1176 34.56C91.1501 35.7448 89.6368 36.5407 87.8916 36.5407C84.7865 36.5389 82.3385 34.0598 82.3385 30.9255Z" fill="#2FA7D5"/>
<path d="M94.1731 26.0113C94.1731 25.637 94.4688 25.3413 94.8284 25.3413C95.2027 25.3413 95.4984 25.637 95.4984 26.0113V35.8378C95.4984 36.1956 95.2027 36.5078 94.8284 36.5078C94.4707 36.5078 94.1731 36.1956 94.1731 35.8378V26.0113ZM96.1227 31.3307C96.0442 31.2522 95.9675 31.1117 95.9675 30.9255C95.9675 30.7539 96.0296 30.6133 96.1081 30.5202L100.257 25.5768C100.382 25.4362 100.553 25.3431 100.741 25.3431C101.084 25.3431 101.366 25.6243 101.366 25.9674C101.366 26.1226 101.303 26.2632 101.21 26.3727L97.4371 30.8488L101.274 35.418C101.384 35.5585 101.431 35.6991 101.431 35.8543C101.431 36.2139 101.135 36.5096 100.776 36.5096C100.573 36.5096 100.387 36.4311 100.261 36.2614L96.1227 31.3307Z" fill="#2FA7D5"/>
<path d="M60.3979 47.8313C60.3979 44.6969 62.8459 42.2161 65.9511 42.2161C67.6981 42.2161 69.2114 43.012 70.1771 44.1803C70.3012 44.3208 70.3651 44.4924 70.3651 44.6476C70.3651 45.0054 70.0694 45.303 69.6951 45.303C69.5235 45.303 69.3373 45.1934 69.1657 45.0383C68.4173 44.1018 67.2946 43.4775 65.9529 43.4775C63.6126 43.4775 61.7725 45.3961 61.7725 47.8294C61.7725 50.2464 63.6126 52.165 65.9529 52.165C67.2946 52.165 68.4173 51.5406 69.1657 50.6206C69.3373 50.449 69.5235 50.3559 69.6951 50.3559C70.0694 50.3559 70.3651 50.637 70.3651 51.0112C70.3651 51.1518 70.303 51.3398 70.1771 51.464C69.2096 52.6487 67.6962 53.4446 65.9511 53.4446C62.8459 53.4464 60.3979 50.9656 60.3979 47.8313Z" fill="#E20613"/>
<path d="M71.7816 47.8312C71.7816 44.6968 74.2296 42.216 77.3347 42.216C80.4381 42.216 82.8879 44.6968 82.8879 47.8312C82.8879 50.9655 80.4399 53.4464 77.3347 53.4464C74.2296 53.4464 71.7816 50.9655 71.7816 47.8312ZM81.5297 47.8312C81.5297 45.3978 79.6732 43.4792 77.3347 43.4792C74.9945 43.4792 73.1544 45.3978 73.1544 47.8312C73.1544 50.2481 74.9945 52.1667 77.3347 52.1667C79.6732 52.1667 81.5297 50.2481 81.5297 47.8312Z" fill="#E20613"/>
<path d="M84.6459 42.9498C84.6459 42.5592 84.9416 42.2488 85.3323 42.2488C85.5513 42.2488 85.7539 42.3584 85.8635 42.4989L91.5407 49.2678V42.917C91.5407 42.5427 91.8365 42.247 92.2107 42.247C92.5685 42.247 92.866 42.5427 92.866 42.917V52.7435C92.866 53.1013 92.5703 53.4135 92.2107 53.4135C91.8365 53.4135 91.5407 53.1013 91.5407 52.7435V51.3251L85.973 44.6804V52.7435C85.973 53.1013 85.6773 53.4135 85.303 53.4135C84.9453 53.4135 84.6477 53.1013 84.6477 52.7435V42.9498H84.6459Z" fill="#E20613"/>
<path d="M94.6586 50.856C94.6586 50.4982 94.9397 50.2171 95.2975 50.2171C95.6571 50.2171 95.8597 50.4508 95.9218 50.7155C96.0459 51.3398 96.7177 52.1977 97.9645 52.1977C99.1657 52.1977 99.9762 51.2923 99.9762 50.3412C99.9762 49.0616 98.9156 48.6107 98.0886 48.377L97.3092 48.158C96.3271 47.8622 94.7663 47.2069 94.7663 45.1642C94.7663 43.4646 96.1226 42.216 97.9791 42.216C99.8813 42.216 101.146 43.5103 101.146 44.726C101.146 45.0857 100.865 45.365 100.507 45.365C100.133 45.365 99.9306 45.1149 99.8831 44.8356C99.759 44.2277 99.1657 43.4482 97.9809 43.4482C96.8272 43.4482 96.0934 44.3062 96.0934 45.2427C96.0934 46.4913 97.2781 46.8965 97.9499 47.0827L98.6527 47.2854C99.6659 47.5811 101.303 48.1908 101.303 50.4197C101.303 52.0736 99.8685 53.4446 97.9663 53.4446C96.077 53.4464 94.6586 52.0572 94.6586 50.856Z" fill="#E20613"/>
<path d="M103.14 49.1875V42.917C103.14 42.5427 103.436 42.247 103.795 42.247C104.169 42.247 104.465 42.5427 104.465 42.917V49.2642C104.465 51.1043 105.65 52.2123 107.149 52.2123C108.662 52.2123 109.847 51.1043 109.847 49.2642V42.917C109.847 42.5427 110.142 42.247 110.502 42.247C110.876 42.247 111.172 42.5427 111.172 42.917V49.1875C111.172 51.7614 109.394 53.4445 107.149 53.4445C104.903 53.4464 103.14 51.7614 103.14 49.1875Z" fill="#E20613"/>
<path d="M113.277 42.917C113.277 42.5427 113.572 42.247 113.932 42.247C114.306 42.247 114.602 42.5427 114.602 42.917V52.0572H118.361C118.704 52.0572 118.969 52.3219 118.969 52.665C118.969 53.0082 118.704 53.2894 118.361 53.2894H113.932C113.574 53.2894 113.277 52.9936 113.277 52.6194V42.917Z" fill="#E20613"/>
<path d="M120.387 43.6034H117.954C117.61 43.6034 117.329 43.3222 117.329 42.979C117.329 42.6358 117.61 42.3712 117.954 42.3712H124.146C124.489 42.3712 124.754 42.6358 124.754 42.979C124.754 43.3222 124.489 43.6034 124.146 43.6034H121.712V52.7436C121.712 53.1014 121.417 53.4135 121.042 53.4135C120.685 53.4135 120.387 53.1014 120.387 52.7436V43.6034Z" fill="#E20613"/>
<path d="M131.227 42.5117C131.398 42.3237 131.585 42.247 131.773 42.247C132.13 42.247 132.428 42.5427 132.428 42.917V52.7435C132.428 53.1013 132.132 53.4135 131.773 53.4135C131.398 53.4135 131.103 53.1013 131.103 52.7435V50.5767H128.295C127.952 50.5767 127.687 50.312 127.687 49.9688C127.687 49.6256 127.952 49.3445 128.295 49.3445H131.103V44.5873L123.912 53.1817C123.802 53.3058 123.6 53.4153 123.428 53.4153C123.085 53.4153 122.804 53.1342 122.804 52.791C122.804 52.6504 122.835 52.5263 122.959 52.3857L131.227 42.5117Z" fill="#E20613"/>
<path d="M134.109 50.856C134.109 50.4982 134.39 50.2171 134.748 50.2171C135.108 50.2171 135.31 50.4508 135.372 50.7155C135.497 51.3398 136.168 52.1977 137.415 52.1977C138.616 52.1977 139.427 51.2923 139.427 50.3412C139.427 49.0616 138.366 48.6107 137.539 48.377L136.76 48.158C135.778 47.8622 134.217 47.2069 134.217 45.1642C134.217 43.4646 135.573 42.216 137.43 42.216C139.332 42.216 140.597 43.5103 140.597 44.726C140.597 45.0857 140.316 45.365 139.958 45.365C139.584 45.365 139.381 45.1149 139.334 44.8356C139.21 44.2277 138.616 43.4482 137.432 43.4482C136.278 43.4482 135.544 44.3062 135.544 45.2427C135.544 46.4913 136.729 46.8965 137.401 47.0827L138.103 47.2854C139.117 47.5811 140.754 48.1908 140.754 50.4197C140.754 52.0736 139.319 53.4446 137.417 53.4446C135.529 53.4464 134.109 52.0572 134.109 50.856Z" fill="#E20613"/>
<path d="M38.6674 54.6933V57.563C38.6674 58.0486 38.2749 58.4411 37.7893 58.4411H21.7689C21.2833 58.4411 20.8908 58.0486 20.8908 57.563V44.0343C20.8908 42.8405 19.9233 41.8748 18.7313 41.8748H2.15955C1.82731 41.8748 1.55896 41.6065 1.55896 41.2742V27.4699C1.55896 27.1377 1.82731 26.8693 2.15955 26.8693H17.8642C18.3279 26.8693 18.6893 26.4659 18.6382 26.0059C18.5944 25.6097 18.2603 25.3104 17.8642 25.3104H2.15955C0.965681 25.3104 0 26.2779 0 27.4699V41.2742C0 42.4681 0.967507 43.4338 2.15955 43.4338H18.7313C19.0635 43.4338 19.3319 43.7021 19.3319 44.0343V57.563C19.3319 58.9084 20.4235 60 21.7689 60H37.7893C39.1347 60 40.2264 58.9084 40.2264 57.563V54.6933C40.2264 54.436 40.0986 54.1932 39.885 54.049C39.3666 53.6985 38.6674 54.069 38.6674 54.6933Z" fill="#E20613"/>
<path d="M50.4307 28.2421C50.4015 26.621 49.0689 25.3103 47.4424 25.3103H44.476C43.9667 25.3103 43.4756 25.4399 43.0467 25.6754V25.1351C43.0467 23.4848 41.7086 22.1468 40.0583 22.1468H37.0919C36.5826 22.1468 36.0916 22.2764 35.6626 22.5119V21.9715C35.6626 20.3213 34.3245 18.9832 32.6743 18.9832H29.706C29.1967 18.9832 28.7075 19.1128 28.2767 19.3483V2.98832C28.2767 1.33808 26.9386 0 25.2883 0H22.3238C20.6717 0 19.3336 1.33808 19.3336 2.99014V23.797C19.3336 24.1804 19.6111 24.5071 19.9908 24.5674C20.4636 24.6422 20.8926 24.2771 20.8926 23.797V2.98832C20.8926 2.19788 21.5333 1.55714 22.3238 1.55714H25.2883C26.077 1.55714 26.7177 2.19788 26.7177 2.98649V26.0898C26.7177 26.4659 27.0226 26.7725 27.4004 26.7725H27.5958C27.9718 26.7725 28.2785 26.4677 28.2785 26.0898V21.9697C28.2785 21.1811 28.9174 20.5403 29.7078 20.5403H32.6761C33.4647 20.5403 34.1054 21.1811 34.1054 21.9697V29.2534C34.1054 29.6294 34.4103 29.9361 34.7882 29.9361H34.9835C35.3595 29.9361 35.6662 29.6313 35.6662 29.2534V25.1351C35.6662 24.3447 36.307 23.7057 37.0956 23.7057H40.062C40.8524 23.7057 41.4913 24.3465 41.4913 25.1351V32.4169C41.4913 32.793 41.7962 33.0997 42.1741 33.0997H42.3694C42.7454 33.0997 43.0521 32.7948 43.0521 32.4169V28.2987C43.0521 27.5082 43.6929 26.8693 44.4815 26.8693H47.4479C48.2383 26.8693 48.8772 27.51 48.8772 28.2987V43.0175C48.8772 47.5046 45.6115 51.2395 41.3343 51.9788C40.7593 52.0774 40.4873 52.7455 40.8378 53.2129C41.0149 53.4502 41.3106 53.5652 41.6027 53.5141C46.6136 52.647 50.438 48.2713 50.438 43.0175V28.284C50.4326 28.2694 50.4307 28.2567 50.4307 28.2421Z" fill="#2FA7D5"/>
</svg>
